# xmcd
#
# Track frame offsets: 
#        150
#        16973
#        26815
#        39908
#        52835
#        68710
#        75100
#        85842
#        94715
#        111967
#        123802
#        134882
#        149375
#        162615
#        172255
#        184517
#        198487
#        207962
#        218645
#        230605
#        241335
#        254150
#        265722
#
# Disc length: 3742 seconds
#
# Revision: 0
# Processed by: cddbd v1.5.2PL0 Copyright (c) Steve Scherf et al.
# Submitted via: ExactAudioCopy v0.95b3
#
DISCID=450e9c17
DTITLE=The Beatles  - On Stage 1964 - Vol. 1 - Disc 1 FLAC
DYEAR=1900
DGENRE=
TTITLE0=All My Loving
TTITLE1=Till There Was You
TTITLE2=She Love's You
TTITLE3=I Saw Her Standing There
TTITLE4=I Want To Hold Your Hand
TTITLE5=Intro
TTITLE6=Roll Over Beethoven
TTITLE7=From Me To You
TTITLE8=I Saw Her Standing There
TTITLE9=This Boy
TTITLE10=All My Loving
TTITLE11=I Wanna Be Your Man
TTITLE12=Please Please Me
TTITLE13=Till There Was You
TTITLE14=She Love's You
TTITLE15=I Want To Hold Your Hand
TTITLE16=Twist And Shout (Incomplete)
TTITLE17=She Love's You
TTITLE18=This Boy
TTITLE19=All My Loving
TTITLE20=I Saw Her Standing There
TTITLE21=From Me To You
TTITLE22=I Want To Hold Your Hand
EXTD=
EXTT0=
EXTT1=
EXTT2=
EXTT3=
EXTT4=
EXTT5=
EXTT6=
EXTT7=
EXTT8=
EXTT9=
EXTT10=
EXTT11=
EXTT12=
EXTT13=
EXTT14=
EXTT15=
EXTT16=
EXTT17=
EXTT18=
EXTT19=
EXTT20=
EXTT21=
EXTT22=
PLAYORDER=
